<svg id="Layer_1" data-name="Layer 1" xmlns="http://www.w3.org/2000/svg" viewBox="0 0 790.15 564.8"><defs><style>.cls-1{fill:#fff;}.cls-1,.cls-2,.cls-3{fill-rule:evenodd;}.cls-2{fill:#fdfffd;}.cls-3{fill:#ffc800;}</style></defs><path class="cls-1" d="M803.66,779.58h-.38c-2.14-.05-4.27-.11-6.41-.14-3.56-.06-8.24-.13-13-.13l-3.64,0c-3.46,0-7,.11-10.39.19l-.59,0-5.75.14-3,0c-3.82,0-7.75-.14-12-.42h-1.29c-5.81,0-12-.09-16.88-.16h-1.16l-5-.07c-5.17-.07-11-.14-16.7-.28-1.85,0-3.71-.09-5.57-.12h-.26c-5.3-.11-10.78-.22-16.16-.55-2.38-.15-4.85-.34-7.54-.59-7.55-.12-14.62-.32-21.61-.63l-.43,0c-6.73-.3-14.35-.64-21.72-1.14a203.57,203.57,0,0,1-21.22-2.84l-.14,0-.13,0c-2.93-.16-5.86-.39-8.61-.6-1.79-.15-3.73-.36-5.93-.66l-.71-.1c-2.46-.32-5.25-.68-6.71-3.15a6.64,6.64,0,0,1-.82-2.24,17.94,17.94,0,0,1-1.7-1,16.34,16.34,0,0,1-6.46-9.48,39.56,39.56,0,0,1-1-6.2c-.23-2.23-.4-4.54-.53-7.09-.5-9.74-.33-19.33-.09-27.42,0-1.95.14-3.91.24-5.87v-.46l0-.84,0-.1c.13-2.9.29-5.35.5-7.73l0-.16c.1-1.12.2-2.27.36-3.39.05-.36.1-.72.16-1.08,0-6.56,0-11.78,0-16.41.09-8.88.32-18.51.69-29.45.09-2.42.17-4.85.27-7.28,0-1.27.11-2.54.17-3.82v-.25l0-.45.09-1.9,0-.47a10.55,10.55,0,0,1,.3-2.38,5.92,5.92,0,0,1,.38-1V629.9a5.67,5.67,0,0,1-1.72-4.11c.09-6.68,0-13.48-.11-20-.05-3.22-.1-6.44-.13-9.65q-.13-14.67-.23-29.35c-.11-17.64-.16-38.14.78-58.26l.05-1,0-1,0-.8,0-.81c.26-10.06.3-19.82.3-28.05q0-16.24.07-32.49l-.11-.21-.08-.13a14.44,14.44,0,0,1-1.36-5.66c-.11-1.16-.17-2.32-.22-3.44l0-1.07c-.12-2.4-.21-4.81-.3-7.21-.18-5.12-.15-10.15-.1-14.82.06-4.95.21-10.07.35-14.6v-.25c.13-4.8.28-9.75.33-14.63.11-9.66-.07-19.61-.23-28.38-.08-5.14-.14-9.42-.07-13.78,0-2.18.1-4.4.18-6.54v-.53l.05-1.29,0-1.25c0-3.21.12-6.62.25-10,.1-2.21.22-4.82.38-7.44.07-1,.18-2,.28-2.93l0-.14c.09-.72.19-1.49.33-2.25a9.41,9.41,0,0,1,1.31-3.47,4.43,4.43,0,0,1,.29-.42c.11-.68.23-1.37.37-2.07a6.14,6.14,0,0,1,.95-2.53,3.24,3.24,0,0,1,.5-.59,2.16,2.16,0,0,1-.16-.34,6.35,6.35,0,0,1,1.07-6.58,10.8,10.8,0,0,1,4.73-2.72c1-.34,1.91-.64,2.88-.92,2-.6,4.16-1.1,6.16-1.54,2.28-.52,4.33-.92,6.26-1.25a54.69,54.69,0,0,1,6.27-.56c1.93-.08,3.92-.21,6.13-.37l1.17-.1.37,0h.14c1.4-.11,2.84-.23,4.26-.26h.59a65,65,0,0,1,6.73.47l.32,0c1,.11,2.08.22,3.12.29a4.61,4.61,0,0,1,1.68-.51c1.11-.1,2.27-.16,3.53-.16,2.06,0,4.13.14,6.13.28l.79.05c1.22.05,2.51.07,3.95.07,1.69,0,3.39,0,5.09-.06l2.61-.05c3.56,0,7.12-.14,10.69-.23l.89,0,1.64,0c2.4-.06,5-.09,7.84-.09l5.36,0a5.28,5.28,0,0,1,2.62-.76l3.67-.08.54,0c1.65,0,3.3-.08,5-.1,3.11,0,6.22,0,9.33-.09,4.06-.08,8.2-.33,11.86-.56l5.37-.3,3.06-.16,2-.1,13.44-.68c4.73-.21,9.55-.32,13.79-.41l3.52-.08c5.66-.13,11.2-.22,16.45-.28,3.24,0,6.47-.1,10.33-.2,2.77-.06,5.55-.13,8.32-.17s5.32-.05,8-.05c10.75,0,21.21.29,30,.57,7.1.23,14.23.58,21.13.91l.32,0c5.57.27,11.34.56,17,.77,12.69.48,25.27.75,37.39.82h2.24c5.7,0,11.52-.12,17.28-.35,3-.13,6-.22,9.06-.32,3.37-.1,6.74-.21,10.1-.36,3.82-.16,7.77-.44,11.25-.69l.8-.06,6-.41c6.89-.42,12.83-.75,18.18-1l3.64-.17,1.75-.09c4.31-.21,8.74-.43,13.1-.59s8.78-.2,13.07-.24h.16c1.72,0,3.45,0,5.17-.06,6.94-.1,14.17-.38,20.56-.64,5.29-.21,10.75-.43,16.15-.56,10.18-.25,20.53-.25,30.54-.25h9.71c12.16,0,24.21-.17,35.51-.32l1.5,0c4.49-.05,9.59-.13,14.62-.13H1152c6.42,0,12.63.1,18.46.21,6.44.13,13,.19,19.33.24h.45c6.11.06,11.61.1,17.11.19,3.53.07,6.8.09,10,.09,2.71,0,5.27,0,7.63-.06,2.78-.05,5.54-.14,8.36-.24h.56c2.94-.1,6-.19,9-.24q2.65,0,5.31-.09h.28c3.5-.06,7.12-.13,10.68-.13h2.31c3,0,5.9.17,8.77.3h.14c3.16.15,6.43.29,9.64.29h.47c2.24,0,4.51-.16,6.71-.31h.1c1.42-.09,2.84-.19,4.26-.25h.87c1.13,0,2.33.08,3.28.14l.71,0c2.13.13,3.87.26,5.47.41a90.12,90.12,0,0,1,10.89,1.52c1.51.33,3.09.76,5.12,1.39.49.15,1,.32,1.44.51a6,6,0,0,1,1.2.13,9.34,9.34,0,0,1,3.36,1.69,7.21,7.21,0,0,1,3.23,4.81,6.19,6.19,0,0,1,0,1.92,35.73,35.73,0,0,1,3.38,3.92c3.25,4.4,4.2,10.23,4.65,14.24.41,3.8.64,7.7.87,11.46l.15,2.33c.19,3.09.45,6.25.69,9.05.1,1.1.19,2.2.28,3.31.75,9.24,1.11,18.64,1.09,27.95,0,8.88-.67,17.88-1.29,26.58l-.2,2.92c0,.43-.06.87-.08,1.31a20.43,20.43,0,0,1-.92,5.95,4.55,4.55,0,0,1-.42.86c.05,1.76.09,3.53.14,5.3v.28c.28,11.69.36,21.26.25,30.11,0,3-.1,6.05-.15,9.07-.12,6.51-.23,13.22-.2,19.86,0,7.27,0,14.57,0,21.63v8.46c0,4,0,8,0,12.05,0,4.92.09,10.46.06,15.83,0,4.4-.1,8.88-.17,13.21v1.1c-.08,4.26,0,8.78.08,14.2l-.06-.79c.23,7.47.24,15.07.26,22.41v.9c0,7.15,0,14.54.21,21.82v.16c.2,7.77.42,15.8.19,23.88-.21,6.93-.2,14.22,0,22.94l0,1.77v.29c.11,4.14.23,8.42.24,12.62q0,7.36,0,14.73c0,7.92-.32,16-.57,23.76V695c-.06,2-.13,3.94-.19,5.91-.15,4.74-.33,9.79-.71,14.86-.1,1.2-.21,2.4-.33,3.59,0,3.7,0,6.58,0,9.34l0,2.42a5.76,5.76,0,0,1,.47,1.36,15.62,15.62,0,0,1-.18,5.53c-.2,1.24-.45,2.49-.68,3.67l0,.47,0,.64c-.2,2.62-.42,5-.67,7.14-.14,1.29-.32,2.51-.48,3.66a22.75,22.75,0,0,1-.9,4.08,6.21,6.21,0,0,1-1.73,5.8,70.51,70.51,0,0,1-12.78,9.74,35.46,35.46,0,0,1-7.15,3.16,24.63,24.63,0,0,1-4,1,18.27,18.27,0,0,1-2.58.24,8.64,8.64,0,0,1-.88,0,82.36,82.36,0,0,1-9.91,1.13c-3.43.19-7.06.3-11.41.33h-5.35l-2.47,0h-.65a12.92,12.92,0,0,1-3.29-.28,5.73,5.73,0,0,1-3.76-3.15,5.44,5.44,0,0,1-.52-.19l-3.69.32-1.91.15-3.67.32c-8.31.7-16.83.76-24.16.76h-6.85q-3.39,0-6.76,0-6.29.06-12.59.07c-6,0-11.23-.06-16.1-.19-4.09-.1-8.17-.25-12.26-.39-4.85-.18-10.9-.39-16.62-.49l.74,0-4.18,0h-.17c-7.67-.12-15.6-.24-23.4-.42l-6.69-.18-3.3-.08-.65,0c-5.92-.16-12-.32-18.08-.43-3,0-6.19-.07-9.54-.07-9.52,0-19.89.19-31.7.59-3.15.1-6.36.16-9.47.21h-.41c-3.55.07-7.56.14-11.43.29-2.92.11-5.89.27-8.76.42l-.27,0h-.3c-3.91.22-8,.44-11.95.53-4.19.1-8.46.12-12.58.15h-.14c-2.41,0-4.77,0-7.13.06-3.14,0-6.32.11-9.59.19-3.08.08-6.26.16-9.39.2q-3.15,0-6.32,0H962.42l-5,0q-3.72,0-7.44,0c-3,0-5.55,0-7.94-.06l.16,0c-2.55,0-5.1-.07-7.65-.12l-5.72-.13c-3.95-.06-8-.06-11-.06H899c-3.79,0-8.29,0-12.85.13-3.64.08-7.34.26-10.92.43l-.46,0c-2.76.14-5.9.29-9,.4l-4,.12c-5.72.18-11.65.37-17.53.68l-4.44.23h-.24c-6.2.33-12.62.67-18.94.79-1.46,0-2.92,0-4.38,0C812.06,779.8,807.79,779.69,803.66,779.58Z" transform="translate(-564.94 -258.07)"/><path class="cls-2" d="M752,294.29a5.11,5.11,0,0,1,4.15-5.71,104.85,104.85,0,0,1,13.13-.94c4.68-.14,9.36-.2,14-.25,8.71-.12,17.42-.2,26.13-.68s17.54-.87,26.33-1,17.47-.13,26.2-.32a5,5,0,0,1,4.82,5.11,5.27,5.27,0,0,1-1.46,3.66,4.85,4.85,0,0,1-3.36,1.45c-8.81.42-17.61.45-26.43.62-4.52.08-9,.18-13.58.34s-8.95.44-13.42.66c-15.78.77-31.59.14-47.35,1.09-1.28.1-2.55.21-3.82.4a3.63,3.63,0,0,1-.65.05,5,5,0,0,1-4.74-4.44Zm138.33.59a4.89,4.89,0,0,1-4.78-4.38,5,5,0,0,1,4.1-5.63,40.73,40.73,0,0,1,4.82-.24c2,0,3.89,0,5.83,0,4.23,0,8.45-.15,12.67-.39,2.38-.14,4.48,2,4.77,4.44.33,2.66-1.54,5.48-4.15,5.72-4.21.36-8.43.42-12.66.41-3.41,0-6.83-.08-10.24.07l-.35,0h0Z" transform="translate(-564.94 -258.07)"/><path class="cls-1" d="M1039.8,773.39l-7.27.17c-6.94.16-13.87.22-20.8.31-7.54.1-15.07.29-22.61.38-15,.17-30,0-45,.26-14.79.27-29.56,1.22-44.35,1.4-15.25.19-30.51.07-45.77.06-14.5,0-29-.15-43.51.1-7.59.13-15.17.31-22.76.64-3.62.15-7.24.33-10.86.44-2.78.08-5.57.11-8.36.11h-3.14c-12.06-.08-24.13-.13-36.19-.3a5.33,5.33,0,0,1-4.71,3.44h-.14q-14.18-.46-28.34-.86c-9.35-.28-18.71-.43-28-1-9.09-.59-18.18-1.4-27.26-2.27-6.16-.59-12.31-1.37-18.45-2.2a5.47,5.47,0,0,1-4.89,3.27,4.75,4.75,0,0,1-1.28-.17c-3.53-1-7-2.09-10.5-3.26a39.78,39.78,0,0,1-4-1c-1.71-.44-3.42-.91-5.11-1.43a52.17,52.17,0,0,1-6-2,16.83,16.83,0,0,1-2.7-1.47,8.59,8.59,0,0,1-2.35-2.07,9.59,9.59,0,0,1-.84-1.5,5.62,5.62,0,0,1-.08-4.39c-.37-.3-.74-.62-1.09-.94a21.43,21.43,0,0,1-3.24-3.71l0-1.32q.09-3.24.21-6.49c0-1,.08-2,.12-2.94a5.56,5.56,0,0,1,2.05-.91c.48.75,1,1.46,1.54,2.16a23.88,23.88,0,0,0,2.36,2.46,25.79,25.79,0,0,0,3.63,2.9,20.37,20.37,0,0,0,5.74,2.46,24.87,24.87,0,0,0,4.24.92l.11,0A115.91,115.91,0,0,0,612,757.6c4.35.84,8.7,1.66,13.08,2.26,4.22.58,8.45.95,12.69,1.24,9.54.65,19.06,1.58,28.61,2.18l-.52,0c14.79.79,29.61.69,44.41,1.09,15.11.41,30.22.48,45.33.64,7.29.07,14.58.19,21.88,0s14.75-.64,22.14-.83c14.74-.36,29.49-.34,44.24-.34q22.38,0,44.77,0c7.59,0,15.17-.1,22.76-.37l22.27-.83C948.78,762,964,762,979.12,762c14.72-.06,29.44-.41,44.17-.6,14.41-.18,28.82-.72,43.24-1,7-.14,14-.23,21.06-.34,7.62-.11,15.25-.38,22.88-.57,14.18-.36,28.36-.4,42.55-.37h15.67c9.14,0,18.28,0,27.42,0,14.12.11,28.24.45,42.36.53l19.06.09c3,0,6,0,9,0,3.7-.07,7.4-.26,11.11-.41,8.27-.31,16.56-.14,24.82-.8,1.47-.13,2.93-.29,4.39-.5l.17-.12a4.56,4.56,0,0,0,.39.27,3.48,3.48,0,0,0,1.08.41h.08a4.74,4.74,0,0,0,.65,0h.18l.33,0c2.3-.23,4-1.94,5.33-3.77.29-.4.57-.8.83-1.22h0a18.47,18.47,0,0,0,1.41-2.68,41.41,41.41,0,0,0,2.56-9.88c.51-3.37,1-6.73,1.33-10.12a101,101,0,0,0,.19-10.44c-.06-3.61-.1-7.23-.28-10.84-.07-1.44-.2-2.88-.36-4.32.12-3.27,0-6.55,0-9.82l-.06-5.47,0-.46a3.65,3.65,0,0,0,.13-2.58c.17-3.37.29-6.73.35-10.11.17-9.5.15-19,.6-28.5.23-4.85.49-9.69.65-14.54s.15-9.77.16-14.66c0-4.54,0-9.07.06-13.61s.13-9.32.14-14c0-9.8,0-19.6.06-29.4,0-5,.1-10,.13-15,0-4.75,0-9.5,0-14.25q0-14.22,0-28.45c0-9.53,0-19.07,0-28.6,0-9.85.14-19.7.14-29.54s-.07-19.53-.48-29.29c-.21-4.92-.46-9.84-.64-14.76s-.26-10.05-.27-15.07c0-9.86,0-19.72,0-29.58,0-4.87,0-9.75-.15-14.62-.06-2.46-.14-4.91-.24-7.37-.08-2.26-.13-4.53-.27-6.79a73.46,73.46,0,0,0-2.4-14.75c-.1-.39-.21-.79-.32-1.18-.1-1.65-.22-3.3-.43-4.94a58.81,58.81,0,0,0-1.35-7.12,48.24,48.24,0,0,0-2.2-6.36,33.19,33.19,0,0,0-3.14-6,50.8,50.8,0,0,0-4.34-5.53,49.79,49.79,0,0,0-5.39-5l-.48-.4a5.69,5.69,0,0,1,1.37-1.27,6.78,6.78,0,0,1,1.57-.73,6.89,6.89,0,0,1,3.87-.07,15,15,0,0,1,6.65,4.05,17.56,17.56,0,0,1,1.61,1.83,6.2,6.2,0,0,1,3.68-.76c2.53.25,4.42,2.39,5.8,4.45a33.55,33.55,0,0,1,2.25,4.18,38,38,0,0,1,2.22,6.3,6,6,0,0,1,.88.72,6.51,6.51,0,0,1,1.77,4.3,40,40,0,0,1-.27,5.35c0,.6,0,1.2,0,1.8.53,3.9.88,7.84,1.25,11.77l.09,1c.51,4,1,8.05,1.43,12.1.25,2.66.42,5.33.53,8,.08,2.26,0,4.52-.12,6.78-.18,4-.46,8-.71,12v.33c0,1.43,0,2.85,0,4.27a24.54,24.54,0,0,1-.38,4.69v1.13c0,5.12,0,10.23,0,15.34v.09a5.86,5.86,0,0,1,2,4.52c-.26,12.75-.48,25.5-.77,38.26a4,4,0,0,1,.17.59,19,19,0,0,1,.5,4.18V435c0,1.16-.06,2.32-.1,3.48q-.15,4.06-.32,8.14-.33,8-.74,16c-.08,1.71-.17,3.43-.26,5.14a6.51,6.51,0,0,1,1.19,2.89,62.5,62.5,0,0,1,.25,9.68c0,2.6-.06,5.19-.09,7.79-.06,5.38-.15,10.76-.24,16.13q-.27,15.84-1,31.65c-.13,3.11-.29,6.22-.46,9.33q-.11,3.57-.19,7.16a6.45,6.45,0,0,1,1.68,2.74c1,3.16.78,6.71.8,10,0,2.51,0,5,0,7.55q0,7.6-.14,15.21-.22,15.4-.53,30.81l-.21,10.12c0,2.16,0,4.33,0,6.5,0,10.33,0,20.65,0,31l0,22q0,6.45,0,12.9c0,3.58.13,7.21,0,10.79v0h0c0,.27,0,.53,0,.79a5.31,5.31,0,0,1-1,2.88c-.11,4.63-.24,9.24-.45,13.86-.11,2.3-.22,4.6-.4,6.89-.1,1.24-.21,2.48-.34,3.72a8.92,8.92,0,0,1-.83,3.26,6.46,6.46,0,0,1-.63,1c-.11.81-.22,1.62-.32,2.43a66.54,66.54,0,0,1-1.24,7.16c-.59,2.47-1.27,4.91-2.09,7.32-.4,1.15-.83,2.28-1.3,3.4a11.57,11.57,0,0,1-2.64,4.21,5.28,5.28,0,0,1-2.7,1.29,7.22,7.22,0,0,1-.46.82,5.19,5.19,0,0,1-4.39,2.34,4.66,4.66,0,0,1-1.29-.17,5.08,5.08,0,0,1-2-1.08,35.09,35.09,0,0,1-6.84,4.42,34.44,34.44,0,0,1-7.15,2.49,62,62,0,0,1-7.41,1.39c-5,.59-10,.7-15,1l-2.74.15h-.26a5.44,5.44,0,0,1-4.54-2.79c-5.2.18-10.39.28-15.59.48q-10.71.41-21.42.77a5.07,5.07,0,0,1-.55,0,5.47,5.47,0,0,1-4-1.59l-.24-.26-3.32,0c-9.35.11-18.71.05-28,0l-11,0c-2.61,0-5.25-.11-7.88,0a6.16,6.16,0,0,1-1,.28,9.44,9.44,0,0,1-1.92.13h-2.17c-1.26,0-2.51,0-3.76,0-2.6-.07-5.19-.21-7.78-.35-5.07-.27-10.13-.7-15.2-1-8.23-.42-16.48-.49-24.72-.47-8.62,0-17.23.26-25.84-.2-6.32-.34-12.63-.87-19-1.24l.38,0-.43,0-.29,0,.28,0c-11.09-.58-22.18-.64-33.28-.51A5.18,5.18,0,0,1,1039.8,773.39Z" transform="translate(-564.94 -258.07)"/><path class="cls-3" d="M663.21,326.94a32,32,0,0,1-4.37-.39,27,27,0,0,1-4.25-.91,24.07,24.07,0,0,1-4.27-1.85,15.61,15.61,0,0,1-4.16-3.18,18,18,0,0,1-3.71-6.88,4.54,4.54,0,0,1-.21-.69c-.12-.43-.24-.86-.34-1.29a27.17,27.17,0,0,1-.42-9.64,36.57,36.57,0,0,1,2.17-9.79,27.23,27.23,0,0,1,2.06-4,11.52,11.52,0,0,1,.35-1.14,2.89,2.89,0,0,1,1.58-1.65,7.28,7.28,0,0,1,.67-.69,8.77,8.77,0,0,1,3.05-2.87c.74-1.19,1.49-2.36,2.25-3.53a47,47,0,0,1,6.14-7.47c1.06-1.07,2.18-2.07,3.33-3,.51-.42,1-.82,1.56-1.22a5.06,5.06,0,0,1,2.72-1.21,3.07,3.07,0,0,1,2.95,3.47,5.1,5.1,0,0,1-1.35,2.55l-1.07,1.35.06-.07-.1.12a.94.94,0,0,1-.09.12,59.58,59.58,0,0,0-3.66,5.36q-1.36,2.31-2.59,4.68h0c-.28.76-.59,1.51-.88,2.27s-.63,1.63-1,2.44a8.28,8.28,0,0,1-1.51,2.67c.14.51.25,1,.38,1.55.6,0,1.21,0,1.82,0a18.67,18.67,0,0,1,3.77.69,21.46,21.46,0,0,1,7.83,3.52,14.33,14.33,0,0,1,1.82,1.75,9.8,9.8,0,0,1,2,3.08,20.47,20.47,0,0,1,1,4.72,24.11,24.11,0,0,1-.34,9.16,18.94,18.94,0,0,1-4.53,8.13,13.38,13.38,0,0,1-4.1,2.79,11,11,0,0,1-4.54,1.05Z" transform="translate(-564.94 -258.07)"/><path class="cls-3" d="M706.11,329a20.18,20.18,0,0,1-7.62-3.74,17.45,17.45,0,0,1-7.34-11.11c-.37-1.61-.66-3.23-.89-4.87a35.47,35.47,0,0,1-.4-4,21.55,21.55,0,0,1,.42-4.74,42.42,42.42,0,0,1,2.42-8.22,25.24,25.24,0,0,1,2.1-4.15,12.22,12.22,0,0,1,3.18-3.27,2.41,2.41,0,0,1,1.61-.48c.22-.33.46-.65.71-1a2.87,2.87,0,0,1,1.16-.87l1.74-2.2c1.21-1.5,2.44-3,3.67-4.48.57-.69,1.18-1.35,1.75-2.05l.68-.9a2.88,2.88,0,0,1,1.42-1.06c.23-.36.46-.72.7-1.06a7.26,7.26,0,0,1,1-1.15,2.71,2.71,0,0,1,3.42-.1,3.09,3.09,0,0,1,.22,4.58c-.42.59-.82,1.2-1.2,1.82a2.47,2.47,0,0,1-1.1,1,.69.69,0,0,0,0,.13l-.63,1.6c-.46,1.16-.92,2.33-1.37,3.5q-.84,2.21-1.6,4.46a3,3,0,0,1-.07,1c-.74,2.8-1.41,5.62-2,8.46a19.69,19.69,0,0,1,2.66-.17,24.44,24.44,0,0,1,6.79,1,13.33,13.33,0,0,1,3.83,1.71,7.13,7.13,0,0,1,2.66,2.29,16.37,16.37,0,0,1,2.24,4.76,17.09,17.09,0,0,1,.67,4.72,24.78,24.78,0,0,1-.27,4.3,16.48,16.48,0,0,1-1.4,4.77,15.61,15.61,0,0,1-2.54,3.67,18.36,18.36,0,0,1-3.57,2.9,24.28,24.28,0,0,1-3.9,2.07,14.7,14.7,0,0,1-4.31,1.19q-.6.06-1.2.06A16.36,16.36,0,0,1,706.11,329Z" transform="translate(-564.94 -258.07)"/><path class="cls-3" d="M1193.52,814.48a3.08,3.08,0,0,1-1.72-3.54l.14-.42v0l.06-.17c.16-.56.3-1.13.44-1.7.22-.93.5-1.86.68-2.8.12-.73.2-1.47.27-2.21.17-1.57.31-3.15.4-4.73s0-2.86-.09-4.29c-.14-1.63-.35-3.24-.65-4.85-.12-.52-.27-1-.43-1.54h0c-.09-.19-.18-.38-.26-.57l0,0H1191c-.49,0-1,0-1.47,0a28.53,28.53,0,0,1-3.33-.25,23.08,23.08,0,0,1-4.11-.85,18,18,0,0,1-7.21-5,23,23,0,0,1-5.37-8.5,15.53,15.53,0,0,1-.64-5,29.73,29.73,0,0,1,.47-4.52.36.36,0,0,1,0,.1c0-.06,0-.13,0-.19l0-.16a25.64,25.64,0,0,1,1-3.78,31.24,31.24,0,0,1,1.84-4.14,23.86,23.86,0,0,1,2.39-3.7,22,22,0,0,1,3.1-3.36,5.83,5.83,0,0,1,2.86-1.52,3.43,3.43,0,0,1,2.69.67,21.83,21.83,0,0,1,3.76-1.1,16.55,16.55,0,0,1,4.33-.25c.65,0,1.3.1,1.94.2a11.74,11.74,0,0,1,2.53.77,15,15,0,0,1,4,2.57,26.34,26.34,0,0,1,3.63,3.61,24.09,24.09,0,0,1,3.94,8.89c.41,1.62.76,3.27,1,4.94a3.16,3.16,0,0,1,1.81,2.43,9,9,0,0,1,0,2.2c-.07.74-.15,1.49-.23,2.24-.18,1.55-.36,3.1-.55,4.65a67.09,67.09,0,0,1-1.74,9.34c-.44,1.64-1,3.26-1.56,4.86s-1.11,3.1-1.73,4.63c-1.31,3.2-2.77,6.31-4.31,9.39-.89,1.76-1.8,3.5-2.61,5.3-.09.21-.19.42-.26.64l0-.1a4.31,4.31,0,0,1-.39.81,2.74,2.74,0,0,1-3.34,1Zm5.84-20.63,0,.35.25-.67A2.79,2.79,0,0,1,1199.36,793.85Z" transform="translate(-564.94 -258.07)"/><path class="cls-3" d="M1244.85,812.72a3.22,3.22,0,0,1-1.84-3.33,5.63,5.63,0,0,1,.43-1.45c.62-1.54,1.19-3.1,1.69-4.7A32.94,32.94,0,0,0,1246,800a41.58,41.58,0,0,0,.44-4.32,55.85,55.85,0,0,0-.06-6.07,30.74,30.74,0,0,0-.44-3.3c-.06-.26-.13-.53-.2-.8-.49-.2-1-.36-1.48-.55a20,20,0,0,1-2.63-1.29,29.41,29.41,0,0,1-3.46-2.42,32.33,32.33,0,0,1-3.73-3.39,16.1,16.1,0,0,1-2.89-4.35,23.13,23.13,0,0,1-1.54-5.33,16.8,16.8,0,0,1,0-5.66,19.23,19.23,0,0,1,1.61-4.78,19.48,19.48,0,0,1,2.86-4.24,5.66,5.66,0,0,1,3.38-2.32l.3,0a19.6,19.6,0,0,1,3.57-3.31,11.22,11.22,0,0,1,4.72-1.89,13,13,0,0,1,4.91.55,24.77,24.77,0,0,1,8.72,4.07,20.15,20.15,0,0,1,2.93,2.91,21.87,21.87,0,0,1,2.82,4,26.37,26.37,0,0,1,3,8.67,33.12,33.12,0,0,1-.08,9.38,44,44,0,0,1-2.36,9.35c-.59,1.57-1.25,3.1-1.93,4.63q-.48,1.06-1,2.13a8.8,8.8,0,0,1-1.26,2.19,2.93,2.93,0,0,1-2,1l-.68,1.21c-1.57,2.8-3.35,5.48-5.18,8.1-1.33,1.9-2.69,3.78-4.12,5.6h0l-.2.25c-1.06,1.35-2.38,3.07-4.08,3.07A2.88,2.88,0,0,1,1244.85,812.72Z" transform="translate(-564.94 -258.07)"/><path class="cls-3" d="M580.57,756.69c-.15-.79-.29-1.57-.43-2.35a84.56,84.56,0,0,1-1.08-9c-.14-1.91-.2-3.83-.28-5.75s-.15-4-.18-5.92c-.06-4.26,0-8.52.09-12.77.12-8.91-.17-17.81-.16-26.71,0-9.25.23-18.49.41-27.74.18-9.51.26-19,.18-28.53,0-4.84-.09-9.68-.14-14.52s0-9.58,0-14.37.06-9.5.06-14.25,0-9.44,0-14.16c0-9.72,0-19.44.15-29.16.07-4.92.14-9.84.18-14.76,0-4.7,0-9.39.14-14.08.09-5,.23-9.93.33-14.9s.16-9.71.2-14.57q.15-14.55.38-29.09.12-7.16.28-14.32c.1-4.69.24-9.38.32-14.07s.11-9.67,0-14.51-.19-9.55-.25-14.33c-.11-9.32-.14-18.63-.24-27.95,0-4.95-.15-9.89-.3-14.84-.15-4.69-.33-9.38-.43-14.07s-.17-9.19-.17-13.78c0-4.86,0-9.71-.15-14.57-.09-4-.25-7.89-.11-11.83.07-2,.21-3.92.47-5.87.13-.95.28-1.89.48-2.83s.46-1.76.73-2.63a27.39,27.39,0,0,1,1.27-3.37,2.29,2.29,0,0,1,.07-1.24l0-.05h0a3.17,3.17,0,0,1,.28-.55,12.28,12.28,0,0,1,.92-1.26,13.29,13.29,0,0,1,2.53-2.33,29.8,29.8,0,0,1,5.89-3.15,44.58,44.58,0,0,1,12.61-3.22c4.34-.51,8.69-.79,13.05-1,4.08-.19,8.15-.29,12.24-.31s8.18-.08,12.27.14h0c1,.05,1.9.1,2.85.18a1.83,1.83,0,0,1,.79.28,48.21,48.21,0,0,1,5.83-7.4c.5-.52,1-1.05,1.53-1.55l-.07.06c1.66-1.62,3.36-3.2,5.14-4.66a56.68,56.68,0,0,1,5.58-4.1c1.77-1.1,3.6-2.07,5.44-3s3.46-1.77,5.24-2.54l.93-.38a3.56,3.56,0,0,1,1.28-.84,2.07,2.07,0,0,1,1.47,0,2.15,2.15,0,0,1,.21,3.79,2,2,0,0,1-.82.83c-.6.68-1.16,1.4-1.72,2.11l.17-.21q-1.75,2.25-3.37,4.6c-1,1.46-1.95,3-2.87,4.5l0,0c-1.57,2.61-3.13,5.24-4.59,7.93,7.6-.65,15.24-.89,22.86-.93q3.72,0,7.44.1a2.13,2.13,0,0,1,1.7.94,32.26,32.26,0,0,1,2.76-3.18,83.18,83.18,0,0,1,10-8.46q2.53-1.86,5.16-3.57c1.26-.82,2.55-1.64,3.88-2.34a2.89,2.89,0,0,1,2.63-1.32h0a2.06,2.06,0,0,1,1.72,2,2.21,2.21,0,0,1-.59,1.52,1.83,1.83,0,0,1-.82,1l-.31.18-.3.48a84.84,84.84,0,0,0-4.27,8.53c0-.09.07-.18.11-.26l-.09.22v0c-.53,1.2-1,2.39-1.54,3.6h.12c1.4-.09,2.8-.2,4.2-.27,3-.16,6-.25,9.06-.37,6.18-.23,12.36-.29,18.55-.23,5.94.06,11.88.14,17.83.15s12.19-.08,18.29-.13c7.44-.07,14.89-.07,22.34-.07q7.59,0,15.18,0c6.34,0,12.67-.23,19-.38s12.45,0,18.68.14c12.67.29,25.34.32,38,.34,6.48,0,13,0,19.44-.06,6.13,0,12.27,0,18.4-.15,6.38-.1,12.76-.34,19.14-.56s13-.41,19.53-.67c6.24-.24,12.48-.58,18.72-.94s12.32-.65,18.49-1,12.59-.64,18.9-.79,12.61-.23,18.92-.27c12.75-.08,25.49-.09,38.23-.12q18.32,0,36.62,0c12.53,0,25,.11,37.58.2,12.93.08,25.86.21,38.78.23,5.93,0,11.86,0,17.79,0s12.05.05,18.08,0c5.6-.05,11.2-.22,16.8-.33s11.12-.21,16.69-.25,11.15-.08,16.72-.07,11.29.29,16.91.84c2,.19,4,.41,6,.7s4.23.75,6.32,1.21a35,35,0,0,1,7.92,2.55c3.48,1.74,7,4.33,8.42,8.28a2.49,2.49,0,0,1,.08,1.57,38.54,38.54,0,0,1,2.11,5.54c.64,2.1,1.2,4.2,1.66,6.35s.85,4.47,1.17,6.72c.67,4.75,1,9.54,1.43,14.32.42,5,.85,10,1.13,15s.39,10.15.46,15.23c.06,4.88.07,9.76.08,14.64q0,14.81,0,29.61c0,5,0,10.1,0,15.15s.08,10.09.11,15.14q.11,15.26.08,30.51c0,9.86-.26,19.72-.31,29.57q-.07,15.58,0,31.16.06,14.77.26,29.55c.07,4.87.16,9.74.22,14.61.07,5.19.07,10.38,0,15.57-.06,9.83-.13,19.65-.28,29.47q-.12,7.34-.17,14.68c0,4.94,0,9.89-.08,14.84-.09,9.84-.47,19.67-.64,29.51-.08,4.7-.11,9.39-.19,14.09s-.21,9.69-.34,14.53c-.25,9.43-.62,18.86-.8,28.29-.08,4.3-.1,8.59-.4,12.88a140.8,140.8,0,0,1-1.82,14.77,78.37,78.37,0,0,1-2.19,9.23,21.57,21.57,0,0,1-2.08,4.71,26,26,0,0,1-2.36,3.33,18.12,18.12,0,0,1-1.4,1.5,9.67,9.67,0,0,1-1.84,1.37q-.5.4-1,.78a26.62,26.62,0,0,1-5.7,3c-1,.4-2,.72-3,1s-2.2.68-3.32.93c-2.09.48-4.21.83-6.32,1.14-4.12.6-8.29.78-12.43,1-2,.12-4,.18-6.06.3s-4,.26-6,.35c-.53,0-1.07,0-1.6,0-.77,0-1.53,0-2.3,0l-4,0a2.1,2.1,0,0,1-1.92-1.9,48.64,48.64,0,0,1-1.52,5.72,37.71,37.71,0,0,1-2.64,6.44c-1.14,2.11-2.34,4.18-3.67,6.18-2.57,3.89-5.26,7.72-8.12,11.38-1,1.32-2.07,2.6-3.2,3.82s-2.43,2.52-3.69,3.74-2.46,2.18-3.73,3.21-2.32,1.78-3.42,2.76a1.61,1.61,0,0,1-.38.44,1.81,1.81,0,0,1-1.23.46,2.45,2.45,0,0,1-.74-.13,1.75,1.75,0,0,1-.81-.64h0a2.13,2.13,0,0,1-.53-1.42,3.08,3.08,0,0,1,1.08-2.17l.37-.35a2.57,2.57,0,0,1-.17-2c.62-1.79,1.32-3.56,1.91-5.37a80.65,80.65,0,0,0,1.84-8.57c0,.09,0,.19,0,.29l.15-.83c0,.07,0,.14,0,.21.38-2.17.73-4.35,1.08-6.53.18-1.12.35-2.24.52-3.37s.3-2,.38-3v-.07a27.48,27.48,0,0,1-5.38-1.53,21.26,21.26,0,0,1-5.55-3.42,28,28,0,0,1-2.51-2.36,20.53,20.53,0,0,1-2.36-3.11c-.37,0-.74,0-1.12,0h-2.36l-4.89,0c-1.81,0-3.62,0-5.44,0-.6,0-1.22,0-1.83,0a52.9,52.9,0,0,1-.75,6.52,56.3,56.3,0,0,1-1.8,7c-.69,2.16-1.52,4.26-2.41,6.34a67.46,67.46,0,0,1-3,6.22,75.44,75.44,0,0,1-6.84,10.42c-.64.81-1.29,1.61-2,2.38s-1.48,1.58-2.25,2.33a24.93,24.93,0,0,1-2.08,1.77l-.42.33a1.59,1.59,0,0,1-.07.2,2.1,2.1,0,0,1-2,1.4,2.14,2.14,0,0,1-.5-.06,2,2,0,0,1-.87-.49,1.63,1.63,0,0,1-.5-.48h0a2.37,2.37,0,0,1-.43-1.62A2.24,2.24,0,0,1,1188,819c.37-1.93.76-3.86,1.1-5.8l0-.17c.14-.83.29-1.67.44-2.5a2.74,2.74,0,0,0,0,.28,77.14,77.14,0,0,0,1-8.72,67.91,67.91,0,0,0-.17-6.84,48.48,48.48,0,0,0-.7-5.24c-.05-.22-.1-.44-.16-.65h0c-1.55.15-3.08.42-4.65.46a16.38,16.38,0,0,1-6-1,20.28,20.28,0,0,1-5.34-3,21.73,21.73,0,0,1-4.59-5l.1.15h0l-.17-.25-.08-.12c-.41-.64-.78-1.29-1.13-2-.44,0-.88,0-1.32,0h-1l-3.71,0-7.09.08c-3.94,0-7.88.08-11.81.06-5.38,0-10.75-.12-16.12-.23q-8.78-.17-17.57-.29c-5.83-.09-11.65-.12-17.47-.21-5.63-.09-11.27-.22-16.9-.21s-11.28,0-16.92,0c-5.81,0-11.61.12-17.41.21s-11.51.29-17.27.42c-11.9.27-23.8.22-35.69.42-5.88.09-11.75.28-17.63.4s-11.46.22-17.19.4c-5.93.19-11.86.32-17.79.44-5.73.13-11.46.32-17.19.46-6,.15-12,.29-18,.33h-3.45c-4.79,0-9.59-.06-14.38-.1-6-.06-11.9-.08-17.85-.14s-11.64-.15-17.45-.23c-6-.09-12-.26-18-.43s-12-.17-18-.16c-11.51,0-23,0-34.53.2-5.92.1-11.84.24-17.76.31s-11.9.1-17.84.17-12,.2-17.94.18-11.94-.15-17.9-.33c-6.19-.18-12.39-.32-18.58-.48s-12.34-.51-18.51-.85h.29c-6.67-.36-13.34-.66-20-1.09-6.45-.41-12.88-1-19.32-1.35h0c-5.51-.3-11-.35-16.55-.7-2.72-.17-5.46-.36-8.17-.75-1.47-.21-2.92-.48-4.38-.78a38.38,38.38,0,0,1-4.13-1.25,41,41,0,0,1-4-1.58,21.61,21.61,0,0,1-3.31-1.87,33.26,33.26,0,0,1-3.25-2.68,12.29,12.29,0,0,1-2-2.54,17.84,17.84,0,0,1-1.79-3.86,16,16,0,0,1-.54-2.65,2.17,2.17,0,0,1,.27-1.38ZM567.12,491.1q-.24-6.48-.55-12.94c-.19-4.05-.43-8.1-.61-12.16a2.08,2.08,0,0,1,1.83-2.24,2,2,0,0,1,2.12,1.95c.51,8.35.87,16.72,1.19,25.09a2.11,2.11,0,0,1-1.85,2.26h-.13a2.07,2.07,0,0,1-2-2Zm2.21-43.23a2.09,2.09,0,0,1-1.87-2.23q.35-9.64.45-19.29v.28c0-.91,0-1.83,0-2.75V424h0v.12c0-4.55-.11-9.11-.3-13.65s-.45-9-.76-13.52-.63-9.19-.88-13.79-.45-9.18-.64-13.77c-.1-2.51-.2-5-.28-7.51-.08-2.25-.16-4.5,0-6.74a2,2,0,0,1,2.09-2,2.08,2.08,0,0,1,1.86,2.22c0,.64,0,1.28,0,1.92.05,4.54.27,9.07.47,13.6s.4,8.92.65,13.37c.52,9.18,1.27,18.34,1.65,27.52.19,4.56.21,9.12.22,13.68s-.1,9.1-.23,13.64q-.1,3.41-.23,6.81a2.06,2.06,0,0,1-2,2Zm781.32,83.93a2.1,2.1,0,0,1-1.87-2.22q.27-13.8.56-27.6.3-14.1.7-28.2c.12-4.41.22-8.83.25-13.24,0-4.63,0-9.25,0-13.87,0-3,.07-6,.2-9.06.12-2.84.39-5.66.61-8.48a2,2,0,0,1,2.09-2,2.07,2.07,0,0,1,1.85,2.21c-.17,2.15-.35,4.3-.48,6.44s-.2,4.3-.24,6.45c-.09,4.41,0,8.82,0,13.23v-.27c0,9.39-.26,18.79-.51,28.18q-.36,13.47-.64,27-.23,9.72-.43,19.46a2,2,0,0,1-2,2Zm-.3,44.42a2.11,2.11,0,0,1-1.87-2.24q0-6.3,0-12.6v.27c0-3.37-.06-6.75-.24-10.12a2.09,2.09,0,0,1,1.84-2.24,2,2,0,0,1,2.11,2c.19,3.5.25,7,.27,10.51v1c0,3.83,0,7.66,0,11.5a2.06,2.06,0,0,1-2,2Zm-681.1-309.3-.86.47c-.93.52-1.87,1-2.76,1.63s-1.93,1.35-2.88,2.05a74.4,74.4,0,0,0-6.24,5.41,67.79,67.79,0,0,0-4.79,5.22,57.3,57.3,0,0,0-3.27,4.86,47,47,0,0,0-2.2,4.3c-.87,2-1.62,4.15-2.3,6.27-.3,1-.55,2.08-.75,3.15-.31,1.88-.58,3.76-.71,5.66a30,30,0,0,0,0,3c.11,1,.24,2.05.43,3.06.13.56.28,1.1.45,1.64s.36.87.56,1.3.62,1.11,1,1.64,1,1.28,1.51,1.89c.8.9,1.61,1.75,2.48,2.56.6.51,1.21,1,1.85,1.42l.18.12-.25-.16c1,.67,2,1.32,3.06,1.9.6.28,1.19.53,1.81.75.38.11.77.2,1.16.29.79.13,1.57.22,2.37.28l1.06,0c.54-.08,1.08-.17,1.62-.28,1.11-.29,2.21-.64,3.3-1a27.92,27.92,0,0,0,2.8-1.26c1-.58,1.9-1.2,2.82-1.85.63-.49,1.23-1,1.81-1.54s.86-.94,1.27-1.43c.18-.24.35-.49.52-.75s.26-.49.38-.74c.29-.69.53-1.4.78-2.12.07-.25.14-.51.2-.78.07-.45.11-.91.14-1.38,0-.88.05-1.75,0-2.63-.06-.66-.15-1.31-.26-1.95-.26-1.15-.55-2.28-.9-3.4-.16-.4-.32-.8-.5-1.19a32.39,32.39,0,0,0-1.69-3c-.46-.66-1-1.29-1.45-1.91s-1.2-1.22-1.82-1.8c-.39-.35-.79-.68-1.21-1-.23-.15-.47-.28-.71-.42l-.52-.22c-.51-.17-1-.32-1.56-.44-.37-.05-.74-.08-1.11-.11a32.21,32.21,0,0,0-3.93,0l.27,0a9.28,9.28,0,0,0-1.29.16l.1,0a2,2,0,0,1-1.8-.54h0a2.11,2.11,0,0,1-.61-1.75,2.15,2.15,0,0,1-.16-1.52A37,37,0,0,1,658.9,285c.84-1.82,1.75-3.61,2.72-5.35s2.11-3.71,3.18-5.56,2.25-3.85,3.47-5.71l1-1.45Zm-7.88,23c.57,0,1.13,0,1.7,0a16,16,0,0,1,3.37.36,11.49,11.49,0,0,1,4.56,2.19,23.62,23.62,0,0,1,2.59,2.41,25.31,25.31,0,0,1,2.18,2.75,24.3,24.3,0,0,1,1.78,3.05,20.06,20.06,0,0,1,1.4,3.54,30.19,30.19,0,0,1,.91,4.22,25,25,0,0,1,.1,4.24,13.58,13.58,0,0,1-.38,2.85,21.81,21.81,0,0,1-.77,2.28,13,13,0,0,1-2.13,3.66,17,17,0,0,1-1.34,1.48,29.73,29.73,0,0,1-4.33,3.44,24.35,24.35,0,0,1-4.85,2.47l.28-.11-.67.25.17-.06a20.84,20.84,0,0,1-5.57,1.42c-.37,0-.74,0-1.1,0a18.64,18.64,0,0,1-4.86-.69,19.16,19.16,0,0,1-5.59-2.88l.09.06-.53-.36,0,0-.09-.06-.15-.1.09.06a25.07,25.07,0,0,1-2.8-2.25,31.8,31.8,0,0,1-2.32-2.46A23.58,23.58,0,0,1,641,319a17.21,17.21,0,0,1-1.62-3.24,25.84,25.84,0,0,1-1.3-7.21,32.89,32.89,0,0,1,.5-7.14c.07-.44.14-.89.22-1.32l-.06.29a37,37,0,0,1,.87-3.92c.34-1.18.74-2.33,1.16-3.48a52.88,52.88,0,0,1,2.68-6.23l-2.48-.16h0c-3.63-.2-7.27-.15-10.9-.13-4.07,0-8.14.16-12.21.35-2.92.13-5.85.3-8.77.53-1.47.14-2.94.29-4.41.48-1.67.22-3.33.51-5,.86a41.4,41.4,0,0,0-4.58,1.36c-1.67.68-3.31,1.39-4.92,2.23a21.8,21.8,0,0,0-1.87,1.19c-.18.14-.36.28-.53.43a2.33,2.33,0,0,1-.25.83,2.18,2.18,0,0,1-.56.67l-.12.17c-.39.68-.73,1.39-1.06,2.1s-.49,1.27-.7,1.92a2.76,2.76,0,0,1,.08-.27c-.36,1.19-.69,2.37-.94,3.58q-.42,2.76-.6,5.54-.13,3.35-.11,6.69c0,2.18.1,4.36.16,6.55.15,4.85.18,9.71.19,14.56q0,6.9.16,13.79c.09,4.69.26,9.38.41,14.07.3,9.58.36,19.16.42,28.74,0,4.68,0,9.36.1,14s.16,9.56.24,14.34c.14,9.53-.13,19.05-.36,28.57s-.4,19.24-.52,28.86-.16,19.42-.36,29.13c-.1,5-.23,9.93-.32,14.9-.09,4.69-.11,9.38-.15,14.07-.08,9.69-.29,19.37-.32,29.06s0,19.35,0,29-.13,19.08-.06,28.61.18,19.18.13,28.78c-.05,9.4-.3,18.8-.46,28.21-.07,4.6-.13,9.2-.14,13.81s.06,9.18.14,13.78c0,3.17.09,6.34.07,9.51s-.08,6.51-.11,9.76q-.09,8.9.45,17.77a89.82,89.82,0,0,0,1.35,10.2l-.06-.29c0,.2.08.39.11.58a2.93,2.93,0,0,0,0-.29c.21,1.1.44,2.19.65,3.3,0-.1,0-.2,0-.29.12.64.24,1.29.35,1.93a2.15,2.15,0,0,1,0,.62c.25.46.51.92.8,1.36s.6.82.92,1.21.54.54.82.8c.72.61,1.46,1.21,2.22,1.76s1.53.89,2.31,1.3c1.32.61,2.66,1.12,4,1.61l-.16-.05.19.06.08,0-.06,0c.64.21,1.28.44,1.93.63.87.25,1.74.45,2.62.63a99.42,99.42,0,0,0,12.3,1.31h0c3.24.17,6.5.27,9.75.4s6.75.33,10.13.55c3.21.2,6.41.46,9.61.7,3.65.28,7.29.5,10.93.71l-.29,0c5.66.31,11.32.59,17,.9h-.28l1.74.09h-.28c3,.16,6.07.33,9.1.45,2.81.11,5.63.17,8.44.24,6.1.15,12.2.33,18.3.5,5.91.17,11.83.28,17.74.26,6.11,0,12.21-.14,18.31-.2,5.87-.06,11.74-.08,17.61-.14s11.62-.21,17.43-.29c11.64-.17,23.28-.13,34.92-.13,6,0,12,.06,18,.24s12.09.28,18.13.36c11.73.16,23.46.25,35.19.36,6,.07,11.93.11,17.9.06s11.76-.23,17.64-.38,11.62-.33,17.43-.44,11.79-.28,17.69-.46,11.59-.25,17.39-.38c6-.13,11.89-.31,17.84-.4,11.74-.18,23.48-.13,35.22-.45q17.36-.46,34.71-.56c5.66,0,11.33-.07,17,0s11.29.19,16.93.27c5.84.08,11.68.11,17.52.22s11.38.2,17.07.32c5.35.11,10.71.21,16.06.18,3.58,0,7.17,0,10.75-.06l6-.11,3.59,0h.25a20.45,20.45,0,0,1-.87-7.29,24.13,24.13,0,0,1,1.83-7.21,31.32,31.32,0,0,1,1.49-3c.63-1.14,1.29-2.25,2-3.34a31.63,31.63,0,0,1,4.52-5.45,27.93,27.93,0,0,1,2.82-2.4,11.58,11.58,0,0,1,4.12-1.88,23.54,23.54,0,0,1,6.89-.68,19,19,0,0,1,3.67.51,30.81,30.81,0,0,1,6.5,2.45,20.73,20.73,0,0,1,7.74,6.41,40.79,40.79,0,0,1,3.49,6.1,31.35,31.35,0,0,1,2.35,6.57,42.37,42.37,0,0,1,.93,5.83c.07.95.11,1.89.12,2.84,1.33.06,2.66,0,4,.05l4.65,0h4.77a21.36,21.36,0,0,1-.66-2.2,19.52,19.52,0,0,1-.56-3.88,12.56,12.56,0,0,1,.35-3.46c.16-.63.34-1.24.53-1.85a23,23,0,0,1,1.45-3.39,28.77,28.77,0,0,1,1.69-3c.31-.48.62-1,1-1.44s.83-1.08,1.26-1.62a33,33,0,0,1,2.41-2.6l1.36-1.33a14,14,0,0,1,1.23-1.08,29.29,29.29,0,0,1,3.07-2.11,16.1,16.1,0,0,1,4.41-1.74,18.33,18.33,0,0,1,7-.19,18,18,0,0,1,3.44,1,22.53,22.53,0,0,1,3.08,1.42,31.72,31.72,0,0,1,5.93,4.14,22.07,22.07,0,0,1,2.5,2.61,28.78,28.78,0,0,1,2.14,3.09,23.48,23.48,0,0,1,2.57,6.64c.3,1.24.51,2.51.69,3.78s.3,2.32.38,3.48a26.63,26.63,0,0,1,0,3.79c-.08,1.16-.28,2.32-.47,3.46a2.11,2.11,0,0,1,1.87-1.11c1.09,0,2.17,0,3.26,0,1.24,0,2.49,0,3.74,0,2-.06,4-.2,5.94-.32s4-.19,6-.29,4.13-.25,6.2-.4,4.21-.34,6.3-.63l.59-.08h0a64,64,0,0,0,8-1.64,47.12,47.12,0,0,0,4.86-1.78c.85-.4,1.67-.84,2.48-1.32.26-.17.53-.35.78-.54a2.35,2.35,0,0,1,1-1l.23-.13c.17-.1.33-.19.49-.3l0,0a2.14,2.14,0,0,1,.62-.72,1.77,1.77,0,0,1,.53-.27,16.89,16.89,0,0,0,1.19-1.35c.49-.63,1-1.29,1.38-2s.64-1.17.93-1.77c.35-.83.65-1.69.92-2.55a89.5,89.5,0,0,0,2.11-9.34c0,.09,0,.19-.05.28a137.17,137.17,0,0,0,1.76-15.92c0,.09,0,.19,0,.28.2-4.41.2-8.83.29-13.24q.15-7.23.4-14.46c.16-4.61.27-9.23.39-13.84.12-4.86.25-9.72.32-14.59.08-4.69.1-9.39.19-14.09.1-5,.25-9.94.38-14.91.25-9.78.24-19.56.33-29.34q.08-7.6.22-15.21c.09-4.86.12-9.71.15-14.57.06-10,.17-20,0-30.09q-.24-14.67-.37-29.36-.14-15.39-.08-30.78c0-9.91,0-19.83.19-29.74.15-10.22.13-20.43.1-30.65,0-10-.18-19.92-.18-29.88q0-15.21,0-30.4c0-7.65,0-15.3,0-22.94,0-4-.1-8.06-.22-12.09s-.33-7.93-.61-11.9c0,.07,0,.14,0,.21-.38-5-.81-9.94-1.23-14.91a130.65,130.65,0,0,0-1.76-13.67,79.7,79.7,0,0,0-2.28-8.65l0,.12-.06-.19,0-.08,0,.06c-.41-1.16-.85-2.28-1.37-3.39-.27-.52-.54-1-.85-1.53l-.46-.6a3.07,3.07,0,0,1-.62-.72,2.34,2.34,0,0,1-.24-1.67c-.27-.27-.55-.54-.84-.79-.49-.42-1-.81-1.54-1.18s-1.18-.72-1.79-1a28,28,0,0,0-3-1.27,70.55,70.55,0,0,0-7.72-1.87c-2.54-.46-5.09-.76-7.65-1q-3.47-.36-6.93-.55h-.16c-2.9-.15-5.81-.29-8.71-.32-2.56,0-5.11,0-7.66,0-5.74,0-11.48.06-17.22.14s-11.34.23-17,.35-11.5.2-17.26.21c-25.13,0-50.26-.15-75.39-.33q-36.79-.28-73.58-.15c-12.74,0-25.49,0-38.24.17-6.36.07-12.73.17-19.09.44s-12.81.64-19.21,1c-6.16.31-12.32.69-18.48,1-6.35.33-12.71.56-19.06.77l-18.9.62q-9.63.31-19.27.39c-12.63.09-25.26.15-37.89.11-6.16,0-12.32,0-18.49-.11-6.34-.09-12.69-.28-19-.39s-12.69.06-19,.22-12.7.19-19,.19c-12.41,0-24.82,0-37.24.14-5.49.06-11,.06-16.47,0s-11-.13-16.51-.14c-5.3,0-10.61.13-15.91.31-2.69.1-5.38.18-8.07.33l-3.5.2a6.23,6.23,0,0,1-1,0,2.09,2.09,0,0,1-.61-.14c-.33,1-.63,1.94-.94,2.91v0c-.52,1.72-1,3.45-1.39,5.2l-.09.41a18.09,18.09,0,0,1,3.27-.43,11,11,0,0,1,3,.4c.54.15,1.08.35,1.62.54a12.45,12.45,0,0,1,4.18,2.75,22,22,0,0,1,4,5.08,26.1,26.1,0,0,1,1.44,3,17.83,17.83,0,0,1,.94,3.38c0-.1,0-.2,0-.29a14.85,14.85,0,0,1,.36,3.64,23,23,0,0,1-.47,3.61,19.36,19.36,0,0,1-.9,3.19c-.23.58-.47,1.14-.73,1.7a15.28,15.28,0,0,1-1,1.71,25.88,25.88,0,0,1-4.45,5.21,21.37,21.37,0,0,1-2.68,2.08,14.43,14.43,0,0,1-2.81,1.58,26.71,26.71,0,0,1-6.72,1.79,15.51,15.51,0,0,1-1.8.1c-.51,0-1,0-1.52-.05a23.15,23.15,0,0,1-3.32-.4,13.5,13.5,0,0,1-3.31-1.08,23.09,23.09,0,0,1-3.06-1.92,26.15,26.15,0,0,1-5-4.63,30.06,30.06,0,0,1-3-4.48,27.14,27.14,0,0,1-2-5.33,25.27,25.27,0,0,1-1-11.09,31.59,31.59,0,0,1,2.19-7.08c.46-1.05,1-2.07,1.54-3.09s1.05-2,1.62-3c.91-1.58,1.85-3.13,2.87-4.63-3.52-.07-7-.15-10.55-.1-4.06.06-8.12.23-12.18.43-2.06.11-4.13.23-6.2.4l-.44,0h0c-.6.06-1.21.12-1.81.14h-.25l-.4,0-.66,1.42,0,0c-.3.69-.58,1.38-.85,2.08,0,.11-.08.22-.13.33ZM710,327.21a25.85,25.85,0,0,0,2.61-.44,28,28,0,0,0,3.09-.91c.37-.16.74-.33,1.1-.51a31.81,31.81,0,0,0,2.68-1.77c.57-.49,1.12-1,1.66-1.5s1.14-1.21,1.68-1.85,1-1.39,1.44-2.12c.22-.42.43-.84.64-1.27s.34-.89.5-1.34c.23-.83.42-1.67.58-2.53.08-.52.15-1.05.22-1.58s0-.79,0-1.19c-.06-.62-.15-1.23-.24-1.85,0-.12,0-.25-.08-.37s0,.06,0,.09c0-.13-.06-.27-.08-.4,0,.09,0,.19.05.29-.09-.47-.24-.93-.38-1.4s-.47-1.17-.73-1.74c-.42-.81-.86-1.6-1.35-2.36-.43-.61-.87-1.18-1.34-1.74s-1-1-1.47-1.48-.87-.69-1.33-1c-.24-.15-.49-.29-.74-.43s-.71-.28-1.07-.41-.84-.26-1.27-.36c-.25,0-.49-.08-.73-.1s-.78,0-1.16,0c-.88.11-1.74.27-2.6.45l-1.39.29a3.6,3.6,0,0,1-2.18-.05,2.27,2.27,0,0,1-1.3-2.31,19,19,0,0,1,.51-2.89c.36-1.68.81-3.34,1.29-5a96.6,96.6,0,0,1,4.48-12.08l-.06.14c.48-1.1,1-2.2,1.5-3.29q-1.77,1.23-3.5,2.52a84.51,84.51,0,0,0-7.62,6.56l.2-.19a38,38,0,0,0-3,3.34c-1.44,1.93-2.8,3.9-4.06,6-1.39,2.37-2.66,4.8-3.87,7.27a36.09,36.09,0,0,0-1.28,3.47c-.17.65-.34,1.29-.49,1.94-.13.83-.22,1.65-.27,2.49,0,.57,0,1.13.06,1.69.11,1,.25,2,.45,3,.28,1.2.6,2.37,1,3.55s.8,2.12,1.28,3.15c.28.51.56,1,.88,1.51.62.92,1.27,1.79,2,2.64A23.65,23.65,0,0,0,698,323a39.45,39.45,0,0,0,3.21,2.45c.45.28.9.54,1.37.78.28.12.56.25.85.35l-.13-.05.39.14,1.24.29c.93.16,1.87.24,2.81.31.73,0,1.45,0,2.18,0Zm537.12,457.12a3.36,3.36,0,0,1,1.82,2.09,7.1,7.1,0,0,1,.25,2.83c-.07,1.15-.29,2.29-.46,3.43s-.35,2.25-.53,3.38c-.68,4.31-1.34,8.66-2.3,12.92-.31,1.33-.69,2.64-1.09,3.94,0,.07,0,.15-.07.23.6-.54,1.2-1.1,1.79-1.67l0,0c1.56-1.59,3.08-3.21,4.49-4.94q2.73-3.5,5.28-7.15c1.76-2.53,3.5-5.06,5.11-7.69.92-1.59,1.81-3.2,2.59-4.87a55.8,55.8,0,0,0,2-5.64c.42-1.43.77-2.86,1-4.32s.45-2.94.56-4.42c0-.8,0-1.59-.06-2.39-.18-1.78-.39-3.56-.72-5.32a28.36,28.36,0,0,0-.82-3c-.28-.77-.59-1.52-.94-2.26-.28-.51-.57-1-.86-1.5-.49-.71-1-1.4-1.53-2.08s-1.22-1.29-1.87-1.89-1.53-1.23-2.32-1.81a37.55,37.55,0,0,0-3.4-2c-.82-.38-1.64-.73-2.48-1.05a17,17,0,0,0-1.7-.45q-.92-.15-1.83-.24c-.74,0-1.47,0-2.2.07s-1.33.19-2,.33l-.82.25c-.55.22-1.08.47-1.62.73s-1.25.76-1.86,1.17-.93.72-1.38,1.11-1,.92-1.48,1.38c-1.1,1.11-2.14,2.25-3.13,3.46-.41.58-.83,1.16-1.21,1.77l-.15.25-.22.36,0,0a32.81,32.81,0,0,0-1.7,3.28c-.28.69-.54,1.38-.77,2.09-.12.44-.23.89-.33,1.34,0,.26-.08.52-.1.78,0,.42,0,.83,0,1.24s.12,1.05.21,1.58c.19.83.42,1.64.67,2.44s.6,1.49.94,2.22.64,1.21,1,1.81.72,1,1.12,1.49c.69.74,1.4,1.45,2.15,2.13s1.39,1.15,2.13,1.67c.54.34,1.1.66,1.66,1a22.86,22.86,0,0,0,2.35,1c.76.24,1.53.45,2.31.62a14.47,14.47,0,0,1,2.33.51Zm-52.93,6.75c.17,1.07.29,2.15.38,3.24.18,2.24.3,4.5.27,6.76a89.66,89.66,0,0,1-1.56,13.07c.51-.56,1-1.15,1.5-1.74l.71-.9c1.51-2,2.94-4.07,4.27-6.22l0,0c.76-1.29,1.51-2.58,2.21-3.91.8-1.51,1.54-3,2.24-4.6l0,0a80.42,80.42,0,0,0,2.9-7.72,58,58,0,0,0,1.41-5.82q.45-3,.63-6c.07-1.82.11-3.64,0-5.46-.14-1.46-.33-2.92-.6-4.36a37.46,37.46,0,0,0-1-3.81q-.82-2.16-1.81-4.24a38.92,38.92,0,0,0-2-3.62c-.37-.54-.75-1.07-1.16-1.58s-.89-1-1.36-1.39c-.63-.53-1.27-1-1.94-1.51s-1.12-.69-1.7-1l0,0-.68-.34.17.09c-1.09-.51-2.18-1-3.3-1.4-.84-.27-1.67-.52-2.53-.74-.69-.12-1.38-.23-2.07-.3a25,25,0,0,0-3.12,0,22.05,22.05,0,0,0-2.57.35c-.54.14-1.06.28-1.58.46-.32.15-.63.29-.94.46s-.78.51-1.15.78c-.51.43-1,.85-1.49,1.3a40.21,40.21,0,0,0-2.78,3.05c-.71,1-1.39,1.92-2,2.93-.85,1.45-1.65,2.91-2.38,4.43-.31.72-.58,1.44-.83,2.18s-.37,1.49-.52,2.26c-.08.47-.13.94-.18,1.41,0,.72,0,1.43,0,2.14.07.55.15,1.08.25,1.62a38.21,38.21,0,0,0,1.11,3.93c0-.1-.07-.2-.1-.3.25.63.53,1.24.82,1.85s.64,1.13,1,1.68.82,1.12,1.26,1.65a22.43,22.43,0,0,0,1.58,1.65c.58.49,1.17,1,1.79,1.38s1.35.85,2,1.22a16.75,16.75,0,0,0,1.64.69c.42.13.84.24,1.27.34l-.11,0,.35.07-.27-.06a13.77,13.77,0,0,0,1.68.21,20.76,20.76,0,0,0,2.09-.05c1-.1,2-.25,3-.35a5.75,5.75,0,0,1,1.94.06,3.85,3.85,0,0,1,2.53,2.71A21,21,0,0,1,1194.15,791.08Z" transform="translate(-564.94 -258.07)"/></svg>