<svg id="Layer_1" data-name="Layer 1" xmlns="http://www.w3.org/2000/svg" viewBox="0 0 1322.54 305.85"><defs><style>.cls-1{fill:#141741;}.cls-2{fill:#ffc809;}.cls-3{fill:#ffc800;}.cls-4,.cls-5{fill:#fff;}.cls-5{font-size:15.04px;stroke:#fff;stroke-miterlimit:10;stroke-width:0.25px;font-family:Philosopher-Bold, Philosopher;font-weight:700;}</style></defs><path class="cls-1" d="M1109.41,530.81c-123.2,47.66-315.69,162.54-511,162.54-160.08,0-266.53-89.91-299.72-122.33V387.5H1621.2l0,156.21C1452.52,464.69,1225.9,485.74,1109.41,530.81Z" transform="translate(-298.7 -387.5)"/><path class="cls-2" d="M555.27,660.6c-86.93-3.43-157.22-31.91-209.1-63.22,52.61,37.81,139,82.8,252.25,82.8,195.3,0,387.79-114.88,511-162.55,39.52-15.29,91.74-27.81,150.06-34.6-64.75,4.16-123.22,15.39-167.24,30.38C962.32,557.66,757.17,668.57,555.27,660.6Z" transform="translate(-298.7 -387.5)"/><path class="cls-3" d="M531.39,535.08c.06.53.44.7.89.86,1.36.49,1.21,1.45.49,2.3A58.63,58.63,0,0,0,523.69,553c-3.29,7.61-4,15.22.56,22.56,2.84,4.56,7.39,7.07,12.24,9a13,13,0,0,0,4.82,1.34l4,1a4.58,4.58,0,0,0,2.16.5c5.74.25,11.5.47,17.12-1,2.58-.66,5.28-1.28,7.14-3.51,2.8-.87,5-2.75,7.18-4.55,2.66-1.24,4-3.85,5.63-6,4.49-5.79,6.83-12.67,9.16-19.51,1.26-3.69,2.44-7.41,3.51-11.15.33-1.15.69-1.23,1.7-.82a61.75,61.75,0,0,0,6.18,2.13c.72.21,1.85.69,2.17-.72l-.06.06c3.13-1.23,5.55-3.55,8.3-5.36,6.5-4.24,13.09-8.32,20.47-10.83a30,30,0,0,1,12.51-1.93c3,.28,6,.84,8.53,2.71a6.36,6.36,0,0,1,2.14,7.3c-3,8.39-9.92,13-16.71,17.83-1.67,1.17-3.58,2-5.36,3.48a63.62,63.62,0,0,0,6.48,0c2.83-.29,5.7-.37,8.51-.72,5.81-.72,11.46-2.1,16.57-5.15,4.74-2.83,6.76-7.49,7.92-12.45,1.33-5.71,4.61-10,8.68-13.9.47-.46,1-.84,1.45-1.33a1.8,1.8,0,0,1,2.6-.24c.83.55.69,1.13.28,2.14-2.38,5.79-3.83,11.92-6.4,17.64a27.78,27.78,0,0,1-11.49,12.33,45.49,45.49,0,0,1-16.32,5.78c-10,1.61-19.89,1.31-29.8.4a113.61,113.61,0,0,1-21.29-4.34c-1.68-.49-3.76-2.16-4.92-1.1s-1.39,3.12-2,4.75a89.37,89.37,0,0,1-19,29.19,4.82,4.82,0,0,1-3.54,1.9c-3.31-.07-3.65-.38-7.12.2-2.25.44-4.47,1.42-5.52,3.2s-.51,3.66-.57,5.43a5.5,5.5,0,0,1-3.27,4.28c-1.38.4-4.4-.25-5.31-1.49a57.66,57.66,0,0,1-4.15-8c-2.25-4.81-3.86-4.16-5.59-.08-1.54,2.84-3.5,5.72-5.1,8.43-1.26,1.61-2.82,1-3.85,1-2-.11-5.71-1-7.58-1.21l1.95-1.38a10.15,10.15,0,0,0,1-1.1c1.58-3.26.92-3.85-.07-6.08-.17-.4-.8-.91-4.62-2.37-3.11-1.19-6.59-.84-9.59-.78-1.79,0-2.28-.73-3-2.11-3.39-6.66-2.79-13.34-.6-20.19,1.05-3.28,1.74-6.64,3.22-9.8a80.39,80.39,0,0,1,9.6-16.17,68.6,68.6,0,0,1,4.85-5.91c.52-.53.92-1.18,1.74-1.27l.12,0Zm81,10.4c5.16.9,9.67,2.17,14.42,2.2a42,42,0,0,0,10.69-1.07c2.73-.7,5.64-1.19,7.83-3.31,2-1.91,2-2.79.24-4.82-2-2.34-4.81-3.08-7.65-3.42a23.68,23.68,0,0,0-13.33,2.62A55,55,0,0,0,612.41,545.48Z" transform="translate(-298.7 -387.5)"/><path class="cls-3" d="M512,536.12c-1.7,1.4-2,3.54-2.46,5.41a139.36,139.36,0,0,0-3,19.11c-.38,3.87-.57,7.74-.87,11.6a10.17,10.17,0,0,0,.15,3.35l0,.14c-1.11.9-.8,2.19-.83,3.35-.14,4.33.09,8.69-1.12,13.06-2.89-2.41-4.84-4.91-4.52-9,.43-5.68-.09-11.43.36-17.1A142.27,142.27,0,0,1,502,549.65c1.87-9.44,6.09-17.66,11.54-25.39.27-.39.55-.72.42-1.21l.7-.83c.88-.11,1.41-.47,1.08-1.46l-.18-.09c.71.66,1,0,1.39-.42,5.18-5.33,11.4-9.21,18-12.46a81.16,81.16,0,0,1,16.31-5.93c.27-.07.61-.06.62-.7a27.44,27.44,0,0,0-6.53,0c-2.22.2-2.51-.07-1.43-1.94,1.84-3.22,3.29-6.74,7-8.53a7.25,7.25,0,0,1,5-.4c3.4.85,6.93,1.37,10,3.27,2.15,1.32,2.86,2.46,2.08,4.72a33.38,33.38,0,0,1-9,14.2,7.37,7.37,0,0,1-3.92,1.92c-4.4.6-8.7,1.63-13,2.62a84.24,84.24,0,0,0-12.54,3.79,40.6,40.6,0,0,0-13.21,8.1,6.58,6.58,0,0,0-2.45,4A13.55,13.55,0,0,0,512,536.12Z" transform="translate(-298.7 -387.5)"/><path class="cls-3" d="M482.36,527.11A26.37,26.37,0,0,1,490,506.3a3.58,3.58,0,0,0,.83-2.94c-.08-2.44,1.55-4.52,2.8-6.57a20.57,20.57,0,0,1,2.76-3.42c2.25-2.35,5.31-1.64,8.41.1a15.64,15.64,0,0,1,2.91,2.31c.57.53,1,1.1,1.89.67l0,0c-.5,2.13,1.72,3,2.18,4.75,1,3.77,1.64,7.41.84,11.39-1.15,5.75-4,10.4-7.83,14.65l-3,1.89q-2.37,1.29-4.75,2.57l-2.42.56a11.46,11.46,0,0,1-9.49-1.71c-.42-.3-.77-.7-1.34-.69C482.81,529.17,482.78,528,482.36,527.11Zm6.25-8.45a5,5,0,0,0,3.2,5.7,11.2,11.2,0,0,0,11.32-1.66,6.32,6.32,0,0,0,2.57-6.08,11.84,11.84,0,0,0-7.8-10c-1.23-.46-2.81-.93-4,.3C490.86,510.05,488.56,513.55,488.61,518.66Z" transform="translate(-298.7 -387.5)"/><path class="cls-3" d="M492.44,472.74a2.11,2.11,0,0,1-1.86-.65q-3.49-2.89-7.13-5.59c-.92-.69-1.21-1.3-.45-2.2a59,59,0,0,1,8.64-8.31,1.26,1.26,0,0,1,1.64,0c2,1.34,4.29,2.28,5.87,4.16,1.25,1.48,2.14,1,3.19-.18a45.27,45.27,0,0,1,5.72-5.44,1.85,1.85,0,0,1,2.56-.08c2,1.29,4.13,2.35,5.82,4,2.29,2.25,2.62,4.2.28,6.87a32.37,32.37,0,0,1-6.6,5.35c-.9.6-1.6.29-2.32-.45a43.53,43.53,0,0,0-5.15-4.13c-1-.77-1.54-.66-2.33.29a35.88,35.88,0,0,1-7,5.94A3.24,3.24,0,0,1,492.44,472.74Z" transform="translate(-298.7 -387.5)"/><path class="cls-3" d="M672,577.93c.19,2.15-1.82,3-3.22,4.16-2.17,1.8-4.95,2.47-7.49,3.55a2,2,0,0,1-2.52-.84c-2.07-2.73-4.21-5.4-6.3-8.11-.59-.77-.49-1.39.33-2.07,3.28-2.75,7.12-4.56,10.79-6.64a1.2,1.2,0,0,1,1.06,0,22.27,22.27,0,0,1,7.26,8.41A4.81,4.81,0,0,1,672,577.93Z" transform="translate(-298.7 -387.5)"/><path class="cls-4" d="M607.19,542.43l.06-.07c-3-.21-3-.23-2.37-2.94a70,70,0,0,0-1.26-38.57c-2.35-7.23-5.5-14.1-10.48-19.85a68.84,68.84,0,0,0-15.09-12.63A62.88,62.88,0,0,0,562.4,461a52.18,52.18,0,0,0-32.43.64,49.5,49.5,0,0,0-11,4.95c-.63-3.32-.09-4.79,2.71-6.19a52.05,52.05,0,0,1,28.53-5.43,60.91,60.91,0,0,1,18.12,4.54,77.41,77.41,0,0,1,17.45,10.18c4.61,3.56,9.44,7,12.67,11.93,8.3,12.63,12.57,26.52,12,41.74A77.06,77.06,0,0,1,607.19,542.43Z" transform="translate(-298.7 -387.5)"/><path class="cls-4" d="M493.08,454.43a121.8,121.8,0,0,1,21.37-11.26,81.53,81.53,0,0,1,32.71-5.75,87,87,0,0,1,30.31,6.63,116.21,116.21,0,0,1,23.72,13.31,113,113,0,0,1,18.13,16.36c.59.65,1.1,1.58.4,2.19s-1.6.12-2.31-.58a152.11,152.11,0,0,0-12.79-11.56c-7.08-5.58-14.48-10.61-22.87-14.08-3.63-1.5-7.18-3.29-11-4.29a88.59,88.59,0,0,0-40.25-1.7,108.7,108.7,0,0,0-32.53,12C496.66,456.47,496.65,456.45,493.08,454.43Z" transform="translate(-298.7 -387.5)"/><path class="cls-4" d="M545.06,415.5A79.65,79.65,0,0,1,567,419.3a71.84,71.84,0,0,1,23.3,12.06,41.59,41.59,0,0,1,8.9,9.11c.5.73.72,1.24.18,2s-1.36.42-2,0c-2.57-1.59-4.49-3.93-6.77-5.86a74.63,74.63,0,0,0-21.52-13.11,66.91,66.91,0,0,0-33.78-3.66,83.15,83.15,0,0,0-27.65,9.42,7.77,7.77,0,0,1-1,.48,2,2,0,0,1-2.61-.64,1.8,1.8,0,0,1,.71-2.52,41.86,41.86,0,0,1,9.23-5.05A81.57,81.57,0,0,1,545.06,415.5Z" transform="translate(-298.7 -387.5)"/><path class="cls-4" d="M512.93,454.43a69.14,69.14,0,0,1,18.3-6.59,61.92,61.92,0,0,1,24.22-.41,78.65,78.65,0,0,1,19.65,6.36,96.54,96.54,0,0,1,25.48,17.89c1.4,1.35,2.61,2.89,3.93,4.32.64.7.91,1.59.25,2.23s-1.48-.1-2-.64a130.26,130.26,0,0,0-17.29-14.21,76.49,76.49,0,0,0-25.16-11.1,65.32,65.32,0,0,0-26.93-.57,72.05,72.05,0,0,0-15.46,4.47C515.51,457.2,514.75,455.14,512.93,454.43Z" transform="translate(-298.7 -387.5)"/><path class="cls-4" d="M578.89,578.41c-2.21,1.8-4.38,3.68-7.18,4.56.36-2.13,2-3.52,3.07-5.23a135.22,135.22,0,0,0,13.92-29.3,105.33,105.33,0,0,0,3.5-12.68,97.11,97.11,0,0,0,.17-36.64,20.2,20.2,0,0,1-.42-2.88,1,1,0,1,1,1.93-.34c.54,1.78,1.18,3.55,1.55,5.37a94.05,94.05,0,0,1,1.28,29.84,101.12,101.12,0,0,1-6.59,26.11A124.12,124.12,0,0,1,578.89,578.41Z" transform="translate(-298.7 -387.5)"/><path class="cls-4" d="M537.54,427.28a67.23,67.23,0,0,1,11.87,0,57.31,57.31,0,0,1,15.36,2.57,4,4,0,0,1,1,.43c.53.39,1.25.79,1,1.58s-1,.93-1.85.79c-2-.36-4-.66-5.93-1-8.71-1.72-17.4-1.3-26.14,0-11.91,1.73-22.88,6-33.39,11.66-3.1,1.65-6,3.7-8.94,5.63-.84.55-1.7,1.4-2.48.32-.67-.92,0-1.78.86-2.46A95.42,95.42,0,0,1,510.54,434a92.71,92.71,0,0,1,22.1-6.22C534.25,427.49,535.9,427.43,537.54,427.28Z" transform="translate(-298.7 -387.5)"/><path class="cls-4" d="M553.35,480.24c11.19.11,21,3.71,29,11.7a20.76,20.76,0,0,1,2.87,3.12c.62.94,1.35,1.94.47,2.77s-2-.18-2.69-.83a59.33,59.33,0,0,0-8.57-6.75c-12.28-8-24.79-8.69-37.72-1.49-6.05,3.37-10.93,8-15.4,13.17-.72.84-1.55,1.77-2.6.92-.81-.66-.79-1.76-.15-2.81a34.61,34.61,0,0,1,6.89-7.92,49,49,0,0,1,18.73-10.64A36,36,0,0,1,553.35,480.24Z" transform="translate(-298.7 -387.5)"/><path class="cls-4" d="M544.26,548.8c2.76,6.26,9.16,9.56,14.79,5,2.61-2.13,5.07-1.51,7.51-.26s2.46,3.59,2.21,5.89a26.49,26.49,0,0,1-9.36,17.81c-.59.51-1.29,1.71-2.2.68s.19-1.59.83-2.2a24,24,0,0,0,7.62-15.26c.13-1.29.69-2.81-.76-3.71a4,4,0,0,0-4.44.3,12.6,12.6,0,0,1-9.23,1.73c-4.79-.77-10.07-6.48-10-11,0-2.75,1.63-3.87,4.24-3.13,4.72,1.36,9.49,2.59,14.47,1.53a11.45,11.45,0,0,0,7.64-5.43c.38-.6.51-2,1.62-1.44s.62,1.76.22,2.56a13.7,13.7,0,0,1-10.85,7.75c-4.76.73-9.33-.25-13.9-1.33C544.08,548.1,543.89,548.24,544.26,548.8Z" transform="translate(-298.7 -387.5)"/><path class="cls-4" d="M510.7,495.31c-.34-1.43.28-2.5,1.05-3.69A45,45,0,0,1,528.41,476c6.11-3.26,12.74-4.5,19.59-4.68a60.76,60.76,0,0,1,19,2.93,70,70,0,0,1,8.42,3.52c.83.38,1.59,1.12,1.14,2.15-.51,1.19-1.48.63-2.27.3-8.8-3.7-17.85-6.18-27.51-5.45-12.54.95-23.07,5.8-30.68,16.14a31.6,31.6,0,0,0-2.82,4.05c-.82,1.57-1.58,1.53-2.64.37Z" transform="translate(-298.7 -387.5)"/><path class="cls-4" d="M586.94,518.9a124.26,124.26,0,0,1-4.22,32.48c-2.7,9.9-6.93,19.15-14,26.86a20.84,20.84,0,0,1-3.7,3.26c-.54.36-1.14.85-1.76.09a1.3,1.3,0,0,1,.07-1.83c1.34-1.61,2.7-3.21,4-4.86,4.83-6.17,8-13.17,10.55-20.56a115.92,115.92,0,0,0,4.36-17,126.61,126.61,0,0,0,2.07-19.53,37.72,37.72,0,0,0,.1-4c-.08-1,.29-1.7,1.2-1.83,1.12-.15,1,.83,1,1.55C586.76,515.32,586.84,517.11,586.94,518.9Z" transform="translate(-298.7 -387.5)"/><path class="cls-4" d="M561,467.17c-8.14-1-16-1.21-23.79.39-13.54,2.78-23.78,10.33-31.17,21.83-1.06,1.64-1.85,1.17-3,.49-1.49-.91-.23-1.69.2-2.38a49.42,49.42,0,0,1,26-21,57.83,57.83,0,0,1,25.61-2.88,22.54,22.54,0,0,1,6.49,1.15c.79.33,1.37.64,1.18,1.58S561.3,466.84,561,467.17Z" transform="translate(-298.7 -387.5)"/><path class="cls-4" d="M541.63,528.7c.65-8.76,4.44-11.08,11.06-12.28a22.69,22.69,0,0,1,8-.1c.92.17,1.94.31,1.86,1.51s-1,1-1.88,1.12c-3.78.39-7.57.67-11,2.59-3.72,2.07-5,4.52-4.25,8.78.8,4.65,5.56,8.94,10,9.06a7.91,7.91,0,0,0,7.47-4.77c.52-1.15,1-2.31,1.52-3.46.19-.43.17-1.18,1-.93a1.15,1.15,0,0,1,.79,1.21c.1,7-7.81,13-14.46,10.93A13.61,13.61,0,0,1,541.63,528.7Z" transform="translate(-298.7 -387.5)"/><path class="cls-4" d="M483.5,526c.42.93.44,2.06,1.38,2.73a104.24,104.24,0,0,0,5.79,25.9c.23.6.69,1.74-.47,2.12s-1.27-.53-1.64-1.32c-3-6.25-4.25-12.95-5.7-19.66a75.37,75.37,0,0,1-1.94-17.07c.18-9.82,2.08-19.27,7.51-27.71a8.44,8.44,0,0,1,.54-1,1.31,1.31,0,0,1,1.6-.47c.6.35.37.94.18,1.58a49.47,49.47,0,0,1-2.25,4.84c-2.72,6.32-3.83,13-4.54,19.79-.27,2.63-1.5,5.16-1.06,7.91C483,524.43,482.85,525.31,483.5,526Z" transform="translate(-298.7 -387.5)"/><path class="cls-4" d="M544.79,586.61l-3.47-.61c-1.41-3.35-3.3-6.47-4.62-9.89a99.42,99.42,0,0,1-6.27-28.22c-.21-2.72-.62-5.39,2.18-7.4.47,5.55.93,11,1.91,16.38,1.87,10.2,4.84,20,10.32,28.92A.64.64,0,0,1,544.79,586.61Z" transform="translate(-298.7 -387.5)"/><path class="cls-4" d="M621.27,509.81a54.29,54.29,0,0,1-1.51,12.44c-.22,1.07-.74,2-1.81,1.85-.88-.16-.64-1.13-.51-2a63.72,63.72,0,0,0-.32-22.08,96.46,96.46,0,0,0-6-18.83c-.46-1.05-.66-2,.38-2.5s1.23.72,1.6,1.36A62.48,62.48,0,0,1,621.27,509.81Z" transform="translate(-298.7 -387.5)"/><path class="cls-4" d="M566.87,505.58c3.89,7.14,2,14.68-2.9,20.2-1.77,2-3.58,4.07-6.14,5.19-.61.27-1.17,1.16-1.89.13s0-1.59.61-2.11a38.74,38.74,0,0,0,5.8-5.58,14.47,14.47,0,0,0,3.06-12.64A4.92,4.92,0,0,1,566.87,505.58Z" transform="translate(-298.7 -387.5)"/><path class="cls-4" d="M495.72,531.09l2.42-.55c-.05,1.92-.08,3.84-.15,5.75a80.65,80.65,0,0,0,2,19.52c.59,2.71-.59,5.59-.37,8.45a57.14,57.14,0,0,1-3.5-13,55.86,55.86,0,0,1-.07-17.88A2.43,2.43,0,0,0,495.72,531.09Z" transform="translate(-298.7 -387.5)"/><path class="cls-4" d="M525.37,511.14A45.65,45.65,0,0,1,540.86,492a13.24,13.24,0,0,1,1.95-1.08,1.44,1.44,0,0,1,1.92.7c.53.83-.22,1.2-.75,1.58-4.78,3.48-9.17,7.43-12.25,12.49C530.22,508.21,528.09,509.49,525.37,511.14Z" transform="translate(-298.7 -387.5)"/><path class="cls-4" d="M525.25,552.48a112.7,112.7,0,0,0,7.88,25.74c.46,1,.58,2-.38,2.54s-1.41-.68-1.67-1.31a168.15,168.15,0,0,1-7.35-21.5C523.24,556,524.06,554.33,525.25,552.48Z" transform="translate(-298.7 -387.5)"/><path class="cls-4" d="M555.71,586.87c-1.67.38-2.34-.21-2.88-1.58-1.93-4.83-3.06-9.66-1.22-14.81a12.55,12.55,0,0,1,6-6.92c.57-.32,1.19-.87,1.77-.09s-.13,1.33-.71,1.78c-4.85,3.7-6.35,8.61-5.24,14.48A35.22,35.22,0,0,0,555.71,586.87Z" transform="translate(-298.7 -387.5)"/><path class="cls-4" d="M509.73,472.28a107.89,107.89,0,0,0-14.41,13.33c-.51.56-1.1,1.51-2,.7-.73-.66-.37-1.42.2-2.15a85.44,85.44,0,0,1,12.11-12.82,1.22,1.22,0,0,1,1.74-.16A21.33,21.33,0,0,0,509.73,472.28Z" transform="translate(-298.7 -387.5)"/><path class="cls-4" d="M513.15,535a13.76,13.76,0,0,1,1.86-3.13c.65.09.59.64.58,1a103.45,103.45,0,0,0,1.54,17.83c.3,1.9-1.83,2.89-2,4.75C513.72,548.65,512.53,541.9,513.15,535Z" transform="translate(-298.7 -387.5)"/><path class="cls-4" d="M521.39,545.6a106.94,106.94,0,0,1-.54-15.32c.06-2.49.7-4.38,3.16-5.47.87,1.42-.1,2.92-.18,4.35a102.86,102.86,0,0,0-.09,10.68C523.84,541.94,523,543.56,521.39,545.6Z" transform="translate(-298.7 -387.5)"/><path class="cls-4" d="M502.89,528l3-1.89a53.72,53.72,0,0,0,.26,6.73c.48,3-.91,5.21-2.4,8.09C503.29,536.22,502.71,532.12,502.89,528Z" transform="translate(-298.7 -387.5)"/><path class="cls-4" d="M531.35,535.16l0-.12-.12,0a3.19,3.19,0,0,1-1.25-2.89c.13-2.3.22-4.6.53-6.89.08-.61.12-1.3.88-1.35a1.24,1.24,0,0,1,1.24,1.33c-.32,3.23,0,6.46-.13,9.68C532.42,536,531.75,535.21,531.35,535.16Z" transform="translate(-298.7 -387.5)"/><path class="cls-4" d="M509,555.69c.9,3.63,1.68,6.72,2.4,9.81.39,1.65-.61,3-1,4.63C508.14,566.26,507.62,563.14,509,555.69Z" transform="translate(-298.7 -387.5)"/><path class="cls-4" d="M515.77,521.08l-.7.83c-.68.08-1.53.37-1.28-.87.47-2.33.94-4.65,1.47-7a1,1,0,0,1,1.31-.85c1,.19.88.77.78,1.47-.24,1.61-.45,3.23-.68,4.84l.18.09C515.91,519.76,515.66,520.11,515.77,521.08Z" transform="translate(-298.7 -387.5)"/><path class="cls-4" d="M507,574.59l0-.14a5,5,0,0,1,2,4.36,22.5,22.5,0,0,0,.16,3.84,5.63,5.63,0,0,1-2.21-5.16C507.06,576.53,507,575.56,507,574.59Z" transform="translate(-298.7 -387.5)"/><path class="cls-4" d="M490.13,473.29c-.88.77-1.37,2.52-2.94,1.44-.77-.52-.17-1.49.13-1.94C488.37,471.21,489.14,473,490.13,473.29Z" transform="translate(-298.7 -387.5)"/><path class="cls-4" d="M515.77,521.08c-.11-1,.14-1.32,1.08-1.46C517.18,520.62,516.64,521,515.77,521.08Z" transform="translate(-298.7 -387.5)"/><path class="cls-4" d="M544.26,548.8c-.37-.56-.18-.7.41-.54Z" transform="translate(-298.7 -387.5)"/><path class="cls-4" d="M530,606a4.13,4.13,0,0,0-1.16-1.63,6.82,6.82,0,0,0-2.2-1.23,13.78,13.78,0,0,0-3.44-.67,11.49,11.49,0,0,0,2.58-.84,7.75,7.75,0,0,0,1.83-1.21,4.66,4.66,0,0,0,1.1-1.43,3.42,3.42,0,0,0,.36-1.48,4.41,4.41,0,0,0-1.2-3.24,7.91,7.91,0,0,0-3-1.83,17.14,17.14,0,0,0-4-.79c-1.46-.11-2.85-.17-4.18-.17H505.25v1h.43c1.26,0,2.07.32,2.42,1a5.15,5.15,0,0,1,.53,2.5v18.26h9.28a41.84,41.84,0,0,0,4.47-.24,15.63,15.63,0,0,0,4-.93,7.31,7.31,0,0,0,2.87-1.93,4.68,4.68,0,0,0,1.09-3.21A5.6,5.6,0,0,0,530,606ZM514.1,593.39c.22,0,.48-.06.76-.11a7,7,0,0,1,.8-.1c.31,0,.63,0,1,0a12.76,12.76,0,0,1,2.4.22,8.17,8.17,0,0,1,2.11.49,3.49,3.49,0,0,1,1.47,1.38,3.81,3.81,0,0,1,.57,2.14,3.67,3.67,0,0,1-1.66,3.44c-1.12.67-2.53.61-4.24.61h-3.17Zm8.51,18.25a9.48,9.48,0,0,1-5.33,1.24h-.21a11.15,11.15,0,0,1-2.11-.17,8.51,8.51,0,0,1-.85-.17v-8.35h3.17c4.78,0,7.17.77,7.17,3.94A4,4,0,0,1,522.61,611.64Z" transform="translate(-298.7 -387.5)"/><path class="cls-4" d="M557,611.36l0,0a2.17,2.17,0,0,0-.75-.8l-9.08-17.68a1,1,0,0,0-1-.72h0a1.48,1.48,0,0,0-1.32.7l-12.06,22h3l3.48-6.27h0l1.21-2.16h0L545,598l3.55,8.41h-5.89l-1.16,2.14h8.11l1,1.93a8.2,8.2,0,0,0,1.75,2.36,7.74,7.74,0,0,0,2.11,1.34,8.88,8.88,0,0,0,2.28.62,17.08,17.08,0,0,0,2.17.16q.47,0,1.08-.06a6.51,6.51,0,0,0,.78-.09A10.24,10.24,0,0,1,557,611.36Z" transform="translate(-298.7 -387.5)"/><path class="cls-4" d="M581.09,605.81a15.62,15.62,0,0,0-4.19-2.7l-5.19-2.52c-.68-.32-1.28-.63-1.81-.93a7.53,7.53,0,0,1-1.38-.93,3.91,3.91,0,0,1-.88-1.05,2.62,2.62,0,0,1-.32-1.29c0-1,.32-1.22,1.2-1.81a6.74,6.74,0,0,1,3.71-.83,8.21,8.21,0,0,1,5.15,1.51,6.21,6.21,0,0,1,2.56,3.87.69.69,0,0,0,.68.53h0a.7.7,0,0,0,.71-.7v-3.33a2.35,2.35,0,0,0-.85-1.74,7.19,7.19,0,0,0-2.19-1.31,15.47,15.47,0,0,0-3.06-.81,22,22,0,0,0-3.44-.27,13,13,0,0,0-6.89,1.58,4.88,4.88,0,0,0-2.56,4.31,5.12,5.12,0,0,0,1.19,3.34,11.68,11.68,0,0,0,4,2.83l5.19,2.55a15.27,15.27,0,0,1,3.19,2,3.09,3.09,0,0,1,1.16,2.46,2.72,2.72,0,0,1-1.45,2.5,7.58,7.58,0,0,1-3.83.84,9.13,9.13,0,0,1-5.56-1.51,7.9,7.9,0,0,1-2.7-5.1H562.3v4a2.31,2.31,0,0,0,.85,1.74,7,7,0,0,0,2.19,1.31,15.47,15.47,0,0,0,3.06.81,22,22,0,0,0,3.44.27q5.1,0,7.84-1.72a5.29,5.29,0,0,0,2.74-4.69A4.38,4.38,0,0,0,581.09,605.81Z" transform="translate(-298.7 -387.5)"/><path class="cls-4" d="M616.69,612.81a12.81,12.81,0,0,1-.66-4.71V591.22h-5.52l-8.65,16.92-10.21-16.92h-5.14V614h2.77V595.22L599.92,614h1.39l9.24-18.05V608.1q0,3.9,2,5.65c1.33,1.18,3.52,1.76,6.58,1.76v-.86A2.92,2.92,0,0,1,616.69,612.81Z" transform="translate(-298.7 -387.5)"/><path class="cls-4" d="M645.94,612.63a7.19,7.19,0,0,1-1.85-2.41l-9.45-18.4h-1.9l-12.45,22.74h2.11l3.48-6.27h11.28l1,1.93a8,8,0,0,0,1.75,2.36,7.59,7.59,0,0,0,2.11,1.34,8.77,8.77,0,0,0,2.28.62,17,17,0,0,0,2.17.16c.31,0,.66,0,1.07-.06a6.86,6.86,0,0,0,1-.12v-.86A4.58,4.58,0,0,1,645.94,612.63Zm-19.17-5.89,4.92-9,4.67,9Z" transform="translate(-298.7 -387.5)"/><path class="cls-4" d="M676.56,612.93c-1.26,0-2.07-.32-2.42-.95a5.13,5.13,0,0,1-.53-2.5V591.22h-5.48v9.56H656.74V595.7a11.65,11.65,0,0,0-.17-2.14,2.94,2.94,0,0,0-.61-1.37,2.37,2.37,0,0,0-1.18-.74,6.45,6.45,0,0,0-1.84-.23h-5.06v1h.42c1.27,0,2.08.31,2.43.94a5.15,5.15,0,0,1,.53,2.5V614h5.48v-9.77h11.39v5.29a11,11,0,0,0,.17,2.17,2.84,2.84,0,0,0,.61,1.38,2.23,2.23,0,0,0,1.18.72,6.8,6.8,0,0,0,1.84.21H677v-1Z" transform="translate(-298.7 -387.5)"/><text class="cls-5" transform="translate(211.48 239.94)">Leave a story behind</text></svg>